<svg xmlns="http://www.w3.org/2000/svg" width="58.969" height="58" viewBox="0 0 58.969 58" id="shopping-cart"><path fill-rule="evenodd" d="M54.431 44.842a8.393 8.393 0 0 0 1.428-3.237l3.076-21.346a2.037 2.037 0 0 0-.456-1.608 1.978 1.978 0 0 0-1.508-.684h-4.14v-2.452a7.672 7.672 0 0 0-7.62-7.719 7.487 7.487 0 0 0-3.651.945V6.168a6.083 6.083 0 1 0-12.164 0v2.573a7.491 7.491 0 0 0-3.652-.945 7.689 7.689 0 0 0-7.639 7.719v2.452h-3.612l-1.29-4.945a7.767 7.767 0 0 0-7.481-5.849H1.991a2.01 2.01 0 0 0 0 4.02h3.731a3.784 3.784 0 0 1 3.651 2.855l1.667 6.371.02.061 2.48 17.226.576 4a7.651 7.651 0 0 0 1.429 3.136 6.985 6.985 0 1 0 9.8 3.055h19.286a6.737 6.737 0 0 0-.695 3.035 6.975 6.975 0 1 0 13.95 0 7.077 7.077 0 0 0-3.455-6.09zM41.552 15.515a3.652 3.652 0 1 1 7.3 0v2.452h-7.3v-2.452zm-8.2-9.347a2.114 2.114 0 1 1 4.227 0v11.8h-4.227v-11.8zm-11.291 9.347a3.662 3.662 0 1 1 7.323 0v2.452h-7.323v-2.452zm-3.016 38.452a3.035 3.035 0 1 1 3-3.035 3.03 3.03 0 0 1-2.992 3.035zm2.52-10.09a3.642 3.642 0 0 1-3.552-2.855l-.238-1.708h14.8a2.01 2.01 0 0 0 0-4.02h-15.4L15.25 21.987h39.43l-2.739 18.935a3.666 3.666 0 0 1-3.572 2.955H21.573zm29.329 10.09a3.035 3.035 0 1 1 3.017-3.035 3.026 3.026 0 0 1-3.009 3.035z"></path></svg>